<svg width="40" height="40" viewBox="0 0 40 40" fill="none" xmlns="http://www.w3.org/2000/svg">
<circle cx="20" cy="20" r="20" fill="#757AEF"/>
<path d="M27.0013 19.1606C27.0018 19.31 26.9688 19.4576 26.9048 19.5925C26.8407 19.7275 26.7473 19.8464 26.6313 19.9406L20.6313 24.7706C20.4523 24.9176 20.2279 24.998 19.9963 24.998C19.7646 24.998 19.5402 24.9176 19.3613 24.7706L13.3613 19.7706C13.157 19.6008 13.0286 19.3569 13.0042 19.0925C12.9799 18.8281 13.0615 18.5648 13.2313 18.3606C13.401 18.1563 13.6449 18.0279 13.9093 18.0035C14.1738 17.9792 14.437 18.0608 14.6413 18.2306L20.0013 22.7006L25.3613 18.3806C25.508 18.2583 25.6868 18.1806 25.8763 18.1567C26.0659 18.1328 26.2583 18.1638 26.4308 18.2458C26.6034 18.3279 26.7488 18.4576 26.8499 18.6197C26.9509 18.7818 27.0035 18.9695 27.0013 19.1606Z" fill="white"/>
</svg>
