<?xml version="1.0" encoding="utf-8"?><svg viewBox="0 0 16 16" xmlns="http://www.w3.org/2000/svg" xmlns:xlink="http://www.w3.org/1999/xlink"><style>:root>svg{display:none}:root>svg:target{display:block}</style><svg fill="none" viewBox="0 0 16 16" id="lock" xmlns="http://www.w3.org/2000/svg">
    <path d="M6.578 6v1.333h2.844V6c0-.735-.638-1.333-1.422-1.333-.784 0-1.422.598-1.422 1.333Z" fill="#969AF7"/>
    <path fill-rule="evenodd" clip-rule="evenodd" d="M8 16A8 8 0 1 0 8 0a8 8 0 0 0 0 16Zm2.133-10v1.333H11.2V12H4.8V7.333h1.067V6c0-1.104.955-2 2.133-2s2.133.896 2.133 2Z" fill="#969AF7"/>
</svg><svg fill="none" viewBox="0 0 15 15" id="telephone" xmlns="http://www.w3.org/2000/svg">
    <path d="M14.662 11.453c-.041-.123-.3-.303-.777-.541-.129-.075-.313-.177-.551-.307-.239-.13-.455-.248-.649-.357a21.75 21.75 0 0 1-.547-.317c-.027-.02-.112-.08-.255-.179a2.87 2.87 0 0 0-.363-.22.669.669 0 0 0-.291-.071c-.136 0-.306.097-.51.291a4.976 4.976 0 0 0-.563.634c-.17.228-.35.439-.54.633-.192.194-.348.291-.47.291a.696.696 0 0 1-.23-.05 2.378 2.378 0 0 1-.21-.088 3.79 3.79 0 0 1-.245-.143 6.255 6.255 0 0 0-.195-.117c-.933-.518-1.733-1.11-2.4-1.778-.668-.667-1.26-1.468-1.778-2.4a5.882 5.882 0 0 0-.118-.195 3.69 3.69 0 0 1-.143-.245 2.217 2.217 0 0 1-.087-.21.691.691 0 0 1-.05-.23c0-.122.096-.279.29-.47.195-.19.406-.37.634-.54.228-.17.44-.358.633-.562.194-.205.292-.375.292-.511a.667.667 0 0 0-.072-.291 2.839 2.839 0 0 0-.22-.363 13.371 13.371 0 0 0-.179-.256c-.102-.17-.207-.352-.316-.546-.11-.194-.228-.41-.358-.649a24.3 24.3 0 0 0-.306-.551C3.849.638 3.669.379 3.546.338a.572.572 0 0 0-.214-.03c-.184 0-.424.034-.72.102-.297.068-.53.14-.7.214-.34.143-.702.559-1.083 1.247-.348.64-.521 1.273-.521 1.9 0 .183.012.362.035.536.024.174.067.37.128.587.061.218.11.38.148.486.038.105.107.294.21.567.102.272.163.439.183.5.239.668.522 1.264.848 1.788.538.872 1.272 1.773 2.202 2.702.93.93 1.83 1.664 2.702 2.202.525.327 1.12.61 1.788.848.062.02.228.082.5.184.273.102.462.172.568.21.105.037.267.086.485.148.218.061.414.104.588.128a4 4 0 0 0 .536.035c.627 0 1.26-.174 1.9-.52.688-.382 1.103-.743 1.246-1.084.076-.17.147-.403.215-.7.068-.296.102-.536.102-.72a.569.569 0 0 0-.03-.215Z" fill="#07086C"/>
</svg></svg>